<svg xmlns="http://www.w3.org/2000/svg" viewBox="0 0 151.86 130.6"><g id="Layer_2" data-name="Layer 2"><g id="Layer_1-2" data-name="Layer 1"><path d="M0,57.4V0H7.54V50.18H34.85V57.4Z"/><path d="M54.12,58.22a21,21,0,0,1-10.58-2.75,20.77,20.77,0,0,1-7.67-7.42A19.31,19.31,0,0,1,33,37.88a20.12,20.12,0,0,1,1.56-7.83,22,22,0,0,1,4.84-7l6.07-6.23a11.4,11.4,0,0,1,3.24-1.11,22,22,0,0,1,4.63-.45A21.12,21.12,0,0,1,63.88,18a20.41,20.41,0,0,1,7.66,7.38,19.37,19.37,0,0,1,2.83,10.25,20.12,20.12,0,0,1-1.56,7.83,22.2,22.2,0,0,1-5,7.17l-5.82,6a19.35,19.35,0,0,1-3.61,1.19A19.07,19.07,0,0,1,54.12,58.22ZM55,51.5a12.1,12.1,0,0,0,10.66-6.4,14.66,14.66,0,0,0,1.72-7.22,15.7,15.7,0,0,0-2.13-8.07A16.22,16.22,0,0,0,59.65,24a13.62,13.62,0,0,0-7.25-2.14,11.83,11.83,0,0,0-6,1.64,12.15,12.15,0,0,0-4.55,4.76,14.66,14.66,0,0,0-1.72,7.22,15.7,15.7,0,0,0,2.13,8.07,16.35,16.35,0,0,0,5.57,5.78A13.45,13.45,0,0,0,55,51.5Z"/><path d="M96.84,58.22A20.85,20.85,0,0,1,86,55.47a18.92,18.92,0,0,1-7.18-7.3,20,20,0,0,1-2.5-9.79,17.45,17.45,0,0,1,2-8.25,35.79,35.79,0,0,1,5.9-7.91L89.46,17a13.42,13.42,0,0,1,3.28-1.23,19,19,0,0,1,4.51-.49,20.16,20.16,0,0,1,8.9,2,17.31,17.31,0,0,1,6.27,4.84l-4.84,5.16a13.39,13.39,0,0,0-4.51-3.52,13.56,13.56,0,0,0-6.15-1.4,12.39,12.39,0,0,0-6.68,1.93,13.84,13.84,0,0,0-4.88,5.29,15.38,15.38,0,0,0-1.8,7.38,14.49,14.49,0,0,0,1.8,7.17,13.42,13.42,0,0,0,4.88,5.09A13,13,0,0,0,97.09,51a13.78,13.78,0,0,0,6.64-1.39,22,22,0,0,0,4.75-3.53s0-.08,0-.08.06,0,.12-.08l4.43,5.17a20.06,20.06,0,0,1-7,5.2A21.82,21.82,0,0,1,96.84,58.22Z"/><path d="M116.68,57.4V0H124V33.7l17.14-17.63h9.68l-19.19,18.7L151.86,57.4H142.1L124,35.59V57.4Z"/><path d="M.4,129.74V69.62H8.31v60.12Zm6.27-22.25v-7.3H22.22a12.54,12.54,0,0,0,6-1.46,11.15,11.15,0,0,0,4.38-4.16,11.52,11.52,0,0,0,1.63-6.06,10.79,10.79,0,0,0-3.48-8.29A12.57,12.57,0,0,0,21.88,77H6.67V69.62H23.34a21.65,21.65,0,0,1,10.13,2.23A16.54,16.54,0,0,1,40,77.73a14.6,14.6,0,0,1,2.28,7.86,15.1,15.1,0,0,1-1.89,7.56,37.83,37.83,0,0,1-5.67,7.3l-6.87,7Z"/><path d="M46.1,129.74V69.62h7.64v60.12Z"/><path d="M80.79,130.6A22.22,22.22,0,0,1,61.68,120a20.27,20.27,0,0,1-3-10.65,21.07,21.07,0,0,1,1.63-8.21,23,23,0,0,1,5.07-7.34l6.36-6.53a12.59,12.59,0,0,1,3.39-1.16A23.4,23.4,0,0,1,80,85.59a22.14,22.14,0,0,1,11,2.84,21.34,21.34,0,0,1,8,7.72,20.35,20.35,0,0,1,3,10.74,21.2,21.2,0,0,1-1.63,8.2,23.72,23.72,0,0,1-5.24,7.52L89,128.88a20.43,20.43,0,0,1-3.78,1.24A19.7,19.7,0,0,1,80.79,130.6Zm.95-7a12.64,12.64,0,0,0,11.16-6.7,15.25,15.25,0,0,0,1.81-7.55,16.41,16.41,0,0,0-2.24-8.46,17.09,17.09,0,0,0-5.88-6.06A14.34,14.34,0,0,0,79,92.55a12.33,12.33,0,0,0-6.31,1.72,12.59,12.59,0,0,0-4.77,5,15.36,15.36,0,0,0-1.8,7.55,16.47,16.47,0,0,0,2.23,8.47,17.29,17.29,0,0,0,5.84,6A14.11,14.11,0,0,0,81.74,123.55Z"/><path d="M101,93.58V86.45H128v7.13Zm9.7,36.16V73.57h7.65v56.17Z"/></g></g></svg>