<svg width="18" height="23" viewBox="0 0 18 23" fill="none" xmlns="http://www.w3.org/2000/svg">
<g clip-path="url(#clip0_3475_2605)">
<path fill-rule="evenodd" clip-rule="evenodd" d="M17.5462 7.49174L9.35953 3.49603C9.14145 3.39164 8.88212 3.39164 8.66405 3.49603L0.636539 7.41055C0.347738 7.54973 0.0117855 7.34676 0.0117855 7.0278V3.18287C0.0117855 2.9335 0.176815 2.70732 0.418467 2.63193L8.48133 0.0802436C8.81729 -0.0241437 9.17092 -0.0241437 9.50688 0.0802436L17.5874 2.63193C17.835 2.70732 18 2.9335 18 3.18867V7.21338C18 7.44535 17.7525 7.59613 17.5462 7.49174Z" fill="#F2D69A"/>
<path fill-rule="evenodd" clip-rule="evenodd" d="M17.5108 10.2407L9.35363 4.96918C9.14735 4.83579 8.88212 4.83579 8.67584 4.96918L0.559922 10.2059C0.218075 10.4263 0.0176812 10.7975 0.0117873 11.1976L5.67607e-07 22.9992H18V11.1396C18 10.7743 17.8173 10.4379 17.5108 10.2407Z" fill="#D2505D"/>
</g>
<defs>
<clipPath id="clip0_3475_2605">
<rect width="18" height="23" fill="white" transform="matrix(-1 0 0 1 18 0)"/>
</clipPath>
</defs>
</svg>
